# xmcd
#
# Track frame offsets:
#  150
#  17677
#  43837
#  67883
#  82922
#  103038
#  128676
#  140005
#  164488
#
# Disc length: 2407 seconds
#
# Revision: 0
# Processed by: cddbd v1.5.1PL0 Copyright (c) Steve Scherf et al.
# Submitted via: Collectorz.com_Music_Collector 6.9
#
DISCID=72096509
DTITLE=Jimmy Dawkins - Blues and Pain
DYEAR=1994
DGENRE=Chicago Blues
TTITLE0=Who Done It
TTITLE1=No Pain
TTITLE2=Lonely Guitar Man
TTITLE3=Know Your Love
TTITLE4=Guitar Jive
TTITLE5=Fool In Heath
TTITLE6=Driftin Sand
TTITLE7=Down With The Blues
TTITLE8=Blues and Soul
EXTD=
EXTT0=
EXTT1=
EXTT2=
EXTT3=
EXTT4=
EXTT5=
EXTT6=
EXTT7=
EXTT8=
PLAYORDER=
